# xmcd
#
# Track frame offsets:
#	150
#	11587
#	23437
#	39027
#	52650
#	62997
#	78825
#	89962
#	102450
#	111485
#
# Disc length: 1631 seconds
#
# Revision: 3
# Processed by: cddbd v1.5.2PL0 Copyright (c) Steve Scherf et al.
# Submitted via: EasyCDDAExtractor 15.3.0.1
#
DISCID=74065d0a
DTITLE=Cher - Gypsys, Tramps and Thieves
DYEAR=1971
DGENRE=Pop
TTITLE0=The Way Of Love
TTITLE1=Gypsys, Tramps and Thieves
TTITLE2=He'll Never Know
TTITLE3=Fire and Rain
TTITLE4=When You Find Out Where You're Goin' Let Me Know
TTITLE5=He Ain't Heavy, He's My Brother
TTITLE6=I Hate To Sleep Alone
TTITLE7=I'm In The Middle
TTITLE8=Touch And Go
TTITLE9=One Honest Man
EXTD=
EXTT0=
EXTT1=
EXTT2=
EXTT3=
EXTT4=
EXTT5=
EXTT6=
EXTT7=
EXTT8=
EXTT9=
PLAYORDER=
